<svg height="512pt" viewBox="-1 0 512 512.00101" width="512pt" xmlns="http://www.w3.org/2000/svg"><path d="m508.539062 260.792969c-1.222656-2.140625-3.414062-3.550781-5.867187-3.785157l-19.046875-1.808593-13.996094-13.042969c-1.804687-1.679688-4.3125-2.378906-6.726562-1.875-2.414063.503906-4.433594 2.148438-5.414063 4.410156l-7.605469 17.554688-16.726562 9.28125c-2.160156 1.199218-3.597656 3.367187-3.867188 5.820312-.265624 2.449219.675782 4.878906 2.527344 6.507813l14.34375 12.660156 3.65625 18.777344c.472656 2.421875 2.089844 4.460937 4.339844 5.472656.992188.445313 2.050781.667969 3.109375.667969 1.339844 0 2.675781-.355469 3.859375-1.054688l16.472656-9.734375 18.988282 2.328125c2.449218.296875 4.890624-.609375 6.546874-2.4375 1.65625-1.824218 2.324219-4.34375 1.785157-6.75l-4.164063-18.671875 8.078125-17.34375c1.042969-2.234375.933594-4.835937-.292969-6.976562zm-23.164062 25.105469 2.386719 10.699218-10.878907-1.332031c-1.667968-.207031-3.34375.148437-4.785156 1l-9.4375 5.574219-2.09375-10.757813c-.320312-1.644531-1.175781-3.132812-2.429687-4.242187l-8.21875-7.25 9.585937-5.320313c1.464844-.808593 2.617188-2.082031 3.285156-3.617187l4.355469-10.058594 8.019531 7.472656c1.222657 1.140625 2.792969 1.84375 4.457032 2.003906l10.910156 1.035157-4.625 9.9375c-.710938 1.515625-.894531 3.222656-.53125 4.855469zm0 0"/><path d="m408.765625 93.375 13.152344 4.40625 7.738281 11.507812c1.375 2.046876 3.660156 3.296876 6.125 3.351563.058594 0 .113281.003906.171875.003906 2.402344 0 4.667969-1.140625 6.101563-3.074219l8.25-11.148437 13.339843-3.804687c2.371094-.675782 4.265625-2.460938 5.082031-4.789063.8125-2.328125.445313-4.90625-.984374-6.914063l-8.050782-11.292968.5-13.859375c.089844-2.464844-1.023437-4.820313-2.984375-6.3125-1.960937-1.496094-4.527343-1.945313-6.878906-1.203125l-13.230469 4.167968-13.027344-4.761718c-2.316406-.847656-4.898437-.515625-6.925781.890625-2.027343 1.402343-3.246093 3.703125-3.265625 6.167969l-.125 13.871093-8.554687 10.917969c-1.519531 1.941406-2.003907 4.5-1.292969 6.863281.707031 2.359375 2.519531 4.230469 4.859375 5.011719zm18.53125-15.464844c1.03125-1.316406 1.597656-2.9375 1.613281-4.613281l.050782-5.699219 5.351562 1.957032c1.574219.574218 3.292969.613281 4.886719.109374l5.4375-1.710937-.207031 5.695313c-.0625 1.671874.433593 3.316406 1.402343 4.679687l3.308594 4.640625-5.480469 1.5625c-1.605468.460938-3.019531 1.4375-4.015625 2.78125l-3.390625 4.582031-3.179687-4.730469c-.9375-1.386718-2.300781-2.429687-3.890625-2.960937l-5.402344-1.808594zm0 0"/><path d="m317.375 194.867188c1.941406 0 3.886719-.742188 5.367188-2.222657 1.125-1.128906 1.792968-1.210937 5.074218-1.167969 4.082032.058594 10.265625.140626 16.011719-5.605468 5.746094-5.75 5.664063-11.925782 5.609375-16.015625-.046875-3.273438.035156-3.945313 1.164062-5.070313 1.125-1.128906 1.789063-1.210937 5.074219-1.164062 4.085938.050781 10.265625.136718 16.011719-5.609375 5.746094-5.75 5.664062-11.925781 5.609375-16.015625-.042969-3.273438.039063-3.945313 1.164063-5.074219 1.128906-1.125 1.808593-1.207031 5.074218-1.164063 4.09375.054688 10.265625.136719 16.015625-5.613281 2.964844-2.960937 2.964844-7.769531 0-10.730469-2.964843-2.964843-7.769531-2.964843-10.734375 0-1.125 1.125-1.796875 1.207032-5.074218 1.164063-4.085938-.058594-10.265626-.136719-16.011719 5.609375-5.75 5.75-5.667969 11.925781-5.613281 16.015625.046874 3.273437-.039063 3.945313-1.164063 5.074219-1.125 1.125-1.796875 1.210937-5.074219 1.164062-4.089844-.054687-10.265625-.140625-16.011718 5.609375-5.75 5.746094-5.664063 11.925781-5.609376 16.011719.046876 3.273438-.035156 3.945312-1.164062 5.074219-1.125 1.125-1.800781 1.207031-5.074219 1.164062-4.089843-.054687-10.261719-.140625-16.011719 5.609375-2.964843 2.960938-2.964843 7.769532.003907 10.734375 1.480469 1.480469 3.421875 2.222657 5.363281 2.222657zm0 0"/><path d="m346.738281 83.144531c14.347657 0 26.019531-11.671875 26.019531-26.019531s-11.671874-26.019531-26.019531-26.019531c-14.347656 0-26.019531 11.671875-26.019531 26.019531s11.671875 26.019531 26.019531 26.019531zm0-36.859375c5.976563 0 10.839844 4.863282 10.839844 10.839844s-4.863281 10.839844-10.839844 10.839844c-5.976562 0-10.839843-4.863282-10.839843-10.839844s4.863281-10.839844 10.839843-10.839844zm0 0"/><path d="m233.257812 60.511719c16.683594 0 30.253907-13.570313 30.253907-30.253907 0-16.683593-13.570313-30.257812-30.253907-30.257812-16.683593 0-30.257812 13.574219-30.257812 30.257812 0 16.683594 13.574219 30.253907 30.257812 30.253907zm0-45.332031c8.3125 0 15.074219 6.761718 15.074219 15.078124 0 8.3125-6.761719 15.074219-15.074219 15.074219s-15.078124-6.761719-15.078124-15.074219c0-8.316406 6.765624-15.078124 15.078124-15.078124zm0 0"/><path d="m466.863281 171.757812v-1.566406c0-4.191406-3.394531-7.589844-7.589843-7.589844-4.191407 0-7.589844 3.398438-7.589844 7.589844v1.566406h-1.5625c-4.191406 0-7.589844 3.398438-7.589844 7.589844s3.398438 7.589844 7.589844 7.589844h1.5625v1.5625c0 4.191406 3.398437 7.589844 7.589844 7.589844 4.195312 0 7.589843-3.398438 7.589843-7.589844v-1.5625h1.566407c4.191406 0 7.589843-3.398438 7.589843-7.589844s-3.398437-7.589844-7.589843-7.589844zm0 0"/><path d="m385.660156 284.15625h-1.5625v-1.5625c0-4.191406-3.398437-7.589844-7.589844-7.589844-4.195312 0-7.589843 3.398438-7.589843 7.589844v1.5625h-1.566407c-4.191406 0-7.589843 3.398438-7.589843 7.589844s3.398437 7.589844 7.589843 7.589844h1.566407v1.566406c0 4.191406 3.394531 7.589844 7.589843 7.589844 4.191407 0 7.589844-3.398438 7.589844-7.589844v-1.566406h1.5625c4.195313 0 7.589844-3.398438 7.589844-7.589844s-3.394531-7.589844-7.589844-7.589844zm0 0"/><path d="m184.007812 115.933594h1.5625v1.566406c0 4.191406 3.398438 7.589844 7.589844 7.589844 4.195313 0 7.589844-3.398438 7.589844-7.589844v-1.566406h1.566406c4.191406 0 7.589844-3.398438 7.589844-7.589844s-3.398438-7.589844-7.589844-7.589844h-1.566406v-1.5625c0-4.191406-3.394531-7.589844-7.589844-7.589844-4.191406 0-7.589844 3.398438-7.589844 7.589844v1.5625h-1.5625c-4.195312 0-7.589843 3.398438-7.589843 7.589844s3.394531 7.589844 7.589843 7.589844zm0 0"/><path d="m251.605469 188.140625c1.484375 1.484375 3.425781 2.222656 5.367187 2.222656s3.886719-.738281 5.367188-2.222656c33.734375-33.734375 33.734375-88.625 0-122.359375-2.964844-2.964844-7.769532-2.964844-10.734375 0-2.964844 2.964844-2.964844 7.769531 0 10.730469 27.816406 27.816406 27.816406 73.078125 0 100.894531-2.964844 2.964844-2.964844 7.769531 0 10.734375zm0 0"/><path d="m437.6875 251.859375c2.964844-2.960937 2.964844-7.765625 0-10.730469-16.339844-16.34375-38.070312-25.34375-61.183594-25.34375-23.109375 0-44.835937 9-61.179687 25.34375-2.964844 2.964844-2.964844 7.769532 0 10.730469 2.964843 2.964844 7.769531 2.964844 10.734375 0 13.472656-13.472656 31.390625-20.894531 50.445312-20.894531 19.058594 0 36.976563 7.421875 50.449219 20.894531 1.484375 1.484375 3.425781 2.226563 5.367187 2.226563 1.941407 0 3.882813-.742188 5.367188-2.226563zm0 0"/><path d="m172.113281 143.863281c-10.914062-10.914062-28.671875-10.914062-39.589843 0-5.285157 5.289063-8.199219 12.316407-8.199219 19.796875 0 7.476563 2.914062 14.507813 8.199219 19.792969l6.492187 6.492187-78.539063 176.757813c-1.707031 3.828125.019532 8.316406 3.851563 10.015625 1.003906.445312 2.046875.65625 3.078125.65625 2.90625 0 5.683594-1.679688 6.941406-4.511719l24.246094-54.570312v137.375l-76.054688 33.796875 40.054688-90.148438c1.703125-3.832031-.023438-8.316406-3.855469-10.019531-3.828125-1.703125-8.3125.023437-10.015625 3.855469l-48.066406 108.175781c-1.277344 2.871094-.65234375 6.230469 1.566406 8.449219 1.457032 1.453125 3.394532 2.222656 5.371094 2.222656 1.039062 0 2.089844-.210938 3.078125-.652344l311.382813-138.363281 7.066406 7.066406c5.289062 5.289063 12.316406 8.199219 19.796875 8.199219 7.476562 0 14.507812-2.914062 19.792969-8.199219 5.289062-5.289062 8.199218-12.316406 8.199218-19.792969 0-7.480468-2.910156-14.507812-8.199218-19.796874zm60.902344 189.148438h.015625c4.1875 0 7.582031-3.390625 7.589844-7.578125.015625-11.265625.054687-22.53125.089844-33.796875l40.351562 40.355469c-.015625 14.203124-.023438 28.40625-.027344 42.609374l-40.464844 17.980469c.003907-11.234375.003907-22.464843.011719-33.699219.003907-4.191406-3.394531-7.59375-7.585937-7.59375h-.003906c-4.191407 0-7.585938 3.394532-7.589844 7.582032-.011719 13.484375-.011719 26.972656-.011719 40.457031l-55.96875 24.867187v-203.84375l56.148437 56.148438c-.0625 16.300781-.105468 32.605469-.128906 48.90625-.007812 4.195312 3.386719 7.597656 7.574219 7.605469zm-119.242187-48.878907 36.742187-82.6875 3.726563 3.726563v225.769531l-40.46875 17.980469zm182.449218 83.71875c0-6.894531.007813-13.792968.011719-20.6875l14.320313 14.320313zm61.753906 1.464844c-2.417968 2.421875-5.636718 3.753906-9.058593 3.753906s-6.640625-1.332031-9.0625-3.753906l-196.597657-196.597656c-2.417968-2.417969-3.753906-5.636719-3.753906-9.058594 0-3.425781 1.335938-6.640625 3.753906-9.0625 4.996094-4.996094 13.128907-4.996094 18.121094 0l196.597656 196.597656c4.996094 4.996094 4.996094 13.125 0 18.121094zm0 0"/></svg>